<svg xmlns="http://www.w3.org/2000/svg" viewBox="0 0 512 512">
  <defs>
    <!-- Background -->
    <linearGradient id="bg" x1="0" y1="0" x2="1" y2="1">
      <stop offset="0%" stop-color="#111116"/>
      <stop offset="100%" stop-color="#0C0C12"/>
    </linearGradient>

    <!-- A gradient -->
    <linearGradient id="aGrad" x1="0.5" y1="0" x2="0.5" y2="1">
      <stop offset="0%" stop-color="#FF6A2A"/>
      <stop offset="50%" stop-color="#E84010"/>
      <stop offset="100%" stop-color="#C43000"/>
    </linearGradient>

    <!-- Left wing: fades right-to-left (root → tip) -->
    <linearGradient id="lwg" x1="252" y1="0" x2="42" y2="0" gradientUnits="userSpaceOnUse">
      <stop offset="0%"   stop-color="#FF6838" stop-opacity="1"/>
      <stop offset="60%"  stop-color="#FF4400" stop-opacity="0.55"/>
      <stop offset="100%" stop-color="#FF2000" stop-opacity="0"/>
    </linearGradient>

    <!-- Right wing: fades left-to-right -->
    <linearGradient id="rwg" x1="260" y1="0" x2="470" y2="0" gradientUnits="userSpaceOnUse">
      <stop offset="0%"   stop-color="#FF6838" stop-opacity="1"/>
      <stop offset="60%"  stop-color="#FF4400" stop-opacity="0.55"/>
      <stop offset="100%" stop-color="#FF2000" stop-opacity="0"/>
    </linearGradient>

    <!-- A glow filter -->
    <filter id="aGlow" x="-20%" y="-20%" width="140%" height="140%">
      <feGaussianBlur in="SourceGraphic" stdDeviation="9" result="blur"/>
      <feColorMatrix in="blur" type="matrix"
        values="1 0.2 0 0 0  0.2 0.05 0 0 0  0 0 0 0 0  0 0 0 0.5 0" result="cb"/>
      <feMerge>
        <feMergeNode in="cb"/>
        <feMergeNode in="SourceGraphic"/>
      </feMerge>
    </filter>

    <!-- Wing soft glow -->
    <filter id="wGlow" x="-5%" y="-35%" width="110%" height="170%">
      <feGaussianBlur in="SourceGraphic" stdDeviation="4" result="b"/>
      <feMerge>
        <feMergeNode in="b"/>
        <feMergeNode in="SourceGraphic"/>
      </feMerge>
    </filter>

    <!-- Apex radial glow -->
    <radialGradient id="apexGlow" cx="50%" cy="50%" r="50%">
      <stop offset="0%"   stop-color="#FF8040" stop-opacity="0.9"/>
      <stop offset="60%"  stop-color="#FF4400" stop-opacity="0.3"/>
      <stop offset="100%" stop-color="#FF2000" stop-opacity="0"/>
    </radialGradient>

    <clipPath id="sq">
      <rect width="512" height="512" rx="100"/>
    </clipPath>
  </defs>

  <!-- Background -->
  <rect width="512" height="512" rx="100" fill="url(#bg)"/>

  <!-- ═══════════════════════ LEFT WING ════════════════════════ -->
  <!--
    5 feather lines fan from the apex (252,88):
      P1 upper-most primary  → tip ~(42,45)    steepest upward sweep
      P2                     → tip ~(42,60)
      P3                     → tip ~(42,76)    near-horizontal primary
      S1 secondary/covert    → ends at ~(135,115) shorter, trailing
      S2 inner covert        → ends at ~(158,132) shortest
    All curves use quadratic bezier for organic feather sweep.
  -->
  <g filter="url(#wGlow)" clip-path="url(#sq)">
    <!-- P1 — outer primary, sharpest upward bite -->
    <path d="M 252,88 Q 145,36 42,45"
      stroke="url(#lwg)" stroke-width="2.6" fill="none" stroke-linecap="round" opacity="0.95"/>
    <!-- P2 -->
    <path d="M 252,90 Q 145,52 42,62"
      stroke="url(#lwg)" stroke-width="2.2" fill="none" stroke-linecap="round" opacity="0.82"/>
    <!-- P3 — nearly horizontal, heaviest primary -->
    <path d="M 252,93 Q 145,68 42,78"
      stroke="url(#lwg)" stroke-width="2.0" fill="none" stroke-linecap="round" opacity="0.68"/>
    <!-- S1 — secondary covert, trailing downward -->
    <path d="M 252,99 Q 195,100 135,116"
      stroke="url(#lwg)" stroke-width="1.5" fill="none" stroke-linecap="round" opacity="0.50"/>
    <!-- S2 — inner covert, softest -->
    <path d="M 252,108 Q 207,114 162,130"
      stroke="url(#lwg)" stroke-width="1.1" fill="none" stroke-linecap="round" opacity="0.34"/>
  </g>

  <!-- Left feather barbs — short cross-strokes giving texture -->
  <g clip-path="url(#sq)" opacity="0.22">
    <line x1="162" y1="43" x2="158" y2="112" stroke="#FF4800" stroke-width="1.0"/>
    <line x1="102" y1="48" x2="98"  y2="102" stroke="#FF4800" stroke-width="0.9"/>
  </g>

  <!-- Left wing tip ring + dot -->
  <circle cx="42" cy="45" r="5" fill="none" stroke="#FF5A2A" stroke-width="1.6" opacity="0.6"/>
  <circle cx="42" cy="45" r="2" fill="#FF7845" opacity="0.95"/>

  <!-- Left barb node dots -->
  <circle cx="162" cy="74" r="2.8" fill="#FF5200" opacity="0.62"/>
  <circle cx="100" cy="71" r="2.2" fill="#FF5200" opacity="0.50"/>

  <!-- ═══════════════════════ RIGHT WING ═══════════════════════ -->
  <g filter="url(#wGlow)" clip-path="url(#sq)">
    <!-- P1 -->
    <path d="M 260,88 Q 367,36 470,45"
      stroke="url(#rwg)" stroke-width="2.6" fill="none" stroke-linecap="round" opacity="0.95"/>
    <!-- P2 -->
    <path d="M 260,90 Q 367,52 470,62"
      stroke="url(#rwg)" stroke-width="2.2" fill="none" stroke-linecap="round" opacity="0.82"/>
    <!-- P3 -->
    <path d="M 260,93 Q 367,68 470,78"
      stroke="url(#rwg)" stroke-width="2.0" fill="none" stroke-linecap="round" opacity="0.68"/>
    <!-- S1 -->
    <path d="M 260,99 Q 317,100 377,116"
      stroke="url(#rwg)" stroke-width="1.5" fill="none" stroke-linecap="round" opacity="0.50"/>
    <!-- S2 -->
    <path d="M 260,108 Q 305,114 350,130"
      stroke="url(#rwg)" stroke-width="1.1" fill="none" stroke-linecap="round" opacity="0.34"/>
  </g>

  <!-- Right feather barbs -->
  <g clip-path="url(#sq)" opacity="0.22">
    <line x1="350" y1="43" x2="354" y2="112" stroke="#FF4800" stroke-width="1.0"/>
    <line x1="410" y1="48" x2="414" y2="102" stroke="#FF4800" stroke-width="0.9"/>
  </g>

  <!-- Right wing tip ring + dot -->
  <circle cx="470" cy="45" r="5" fill="none" stroke="#FF5A2A" stroke-width="1.6" opacity="0.6"/>
  <circle cx="470" cy="45" r="2" fill="#FF7845" opacity="0.95"/>

  <!-- Right barb node dots -->
  <circle cx="350" cy="74" r="2.8" fill="#FF5200" opacity="0.62"/>
  <circle cx="412" cy="71" r="2.2" fill="#FF5200" opacity="0.50"/>

  <!-- ═══════════════════════ THE "A" ══════════════════════════ -->
  <g filter="url(#aGlow)">
    <path d="
      M 256 88
      L 104 420
      L 158 420
      L 218 284
      L 294 284
      L 354 420
      L 408 420
      L 256 88
      Z
      M 234 248
      L 256 182
      L 278 248
      Z
    " fill="url(#aGrad)" fill-rule="evenodd"/>
    <!-- Serif foot — left -->
    <rect x="84"  y="415" width="80" height="14" rx="4" fill="url(#aGrad)"/>
    <!-- Serif foot — right -->
    <rect x="348" y="415" width="80" height="14" rx="4" fill="url(#aGrad)"/>
  </g>

  <!-- ═════════════ APEX — radiant node where wings root ═══════ -->
  <!-- Soft radial halo -->
  <circle cx="256" cy="88" r="28" fill="url(#apexGlow)" opacity="0.55"/>
  <!-- Core rings -->
  <circle cx="256" cy="88" r="9"   fill="#FF5818" opacity="0.9"/>
  <circle cx="256" cy="88" r="4.5" fill="#FF8050" opacity="1"/>
  <circle cx="256" cy="88" r="2"   fill="#FFFFFF"  opacity="0.65"/>

  <!-- ═══════════════════ "AI" MICRO BADGE ══════════════════════ -->
  <g opacity="0.78">
    <rect x="386" y="390" width="84" height="36" rx="7"
      fill="#18100E" stroke="#FF4400" stroke-width="1.2"/>
    <!-- A strokes -->
    <line x1="404" y1="418" x2="413" y2="398" stroke="#FF5522" stroke-width="2.2" stroke-linecap="round"/>
    <line x1="413" y1="398" x2="422" y2="418" stroke="#FF5522" stroke-width="2.2" stroke-linecap="round"/>
    <line x1="407" y1="410" x2="419" y2="410" stroke="#FF5522" stroke-width="2.2" stroke-linecap="round"/>
    <!-- I stroke + dot -->
    <line x1="432" y1="398" x2="432" y2="418" stroke="#FF5522" stroke-width="2.2" stroke-linecap="round"/>
    <circle cx="432" cy="394" r="2.5" fill="#FF5522"/>
    <!-- Trailing micro dot -->
    <circle cx="456" cy="408" r="3" fill="#FF4400" opacity="0.45"/>
  </g>

  <!-- Subtle outer border -->
  <rect width="512" height="512" rx="100" fill="none"
    stroke="#FF5500" stroke-width="1" opacity="0.1"/>
</svg>